# xmcd CD database file
# Copyright (C) 1993-1998 Ti Kan
# 
# Track frame offsets:
#     150
#     14462
#     27612
#     40180
#     51800
#     66787
#     81807
#     96022
#     107737
#     122267
#     139927
#     155385
#     170027
#     185307
#     200387
#     213365
#     228750
#     244700
#     259175
#     274977
# 
# Disc length: 3848 seconds
# 
# Revision: 1
# Processed by: cddbd v1.4b41PL1 Copyright (c) Steve Scherf et al.
# Submitted via: DiscPlay 4.0.4
# 
DISCID=130f0614
DTITLE=Charley Pride - Next To You, I Like Me
DYEAR=1900
DGENRE=
TTITLE0=Have I Got Some Blues For You
TTITLE1=Looking At A Sure Thing
TTITLE2=Even Knowin'
TTITLE3=After All This Time
TTITLE4=Next To You, I Like Me
TTITLE5=If You Still Want A Fool Around
TTITLE6=On The Other Hand
TTITLE7=One Of These Days
TTITLE8=Look In Your Mirror
TTITLE9=You Took Me There
TTITLE10=Whole Lotta Love On The Line
TTITLE11=Nickels And Dimes And Love
TTITLE12=That Ol'Gravel Road
TTITLE13=I Wrote The Songs That Broke Her Heart
TTITLE14=Look Who's Lookin'
TTITLE15=Coolin' Down
TTITLE16=She's Takin' It Easy
TTITLE17=You Hold My World Together
TTITLE18=The Right Love
TTITLE19=Plenty Good lovin'
EXTD=
EXTT0=
EXTT1=
EXTT2=
EXTT3=
EXTT4=
EXTT5=
EXTT6=
EXTT7=
EXTT8=
EXTT9=
EXTT10=
EXTT11=
EXTT12=
EXTT13=
EXTT14=
EXTT15=
EXTT16=
EXTT17=
EXTT18=
EXTT19=
PLAYORDER=
